<?xml version="1.0" encoding="UTF-8"?> <svg xmlns="http://www.w3.org/2000/svg" width="77.508" height="26.978" viewBox="0 0 77.508 26.978"><path d="M523.866,553.24c-20.652,0-37.393-5.515-37.393-12.32s16.74-12.32,37.393-12.32,37.392,5.514,37.392,12.32-16.739,12.32-37.392,12.32m0-25.809c-21.4,0-38.756,6.038-38.756,13.489s17.351,13.489,38.756,13.489,38.752-6.039,38.752-13.489-17.349-13.489-38.752-13.489" transform="translate(-485.11 -527.431)" fill="#76787a"></path><g transform="translate(14.693 2.558)"><path d="M551.623,546.843c.013.07.1.137.194.17.03.013.048.034.012.108a8.781,8.781,0,0,1-.811,1.342,5.035,5.035,0,0,1-1.029,1.114c-.607.5-1.449,1.047-2.146.68a1.047,1.047,0,0,1-.436-.943,4.941,4.941,0,0,1,1.262-2.992c.987-1.216,2.079-1.846,2.8-1.5.74.353.5,1.212.172,1.886a.175.175,0,0,0-.014.138m7.95-7.68c.054-.094,0-.163-.121-.163l-2.076,0c-.154,0-.232.017-.3.161-.238.456-3.14,4.8-3.68,5.647-.091.128-.2.112-.216-.035a1.81,1.81,0,0,0-1.169-1.353,2.957,2.957,0,0,0-1.556-.179,5.553,5.553,0,0,0-2.551,1.2c-1.126.857-2.1,1.966-3.352,2.785-.684.446-1.623.835-2.249.255a1.9,1.9,0,0,1,.364-2.6.1.1,0,0,1,.184.07,1.143,1.143,0,0,0,.328,1.1,1.24,1.24,0,0,0,1.386.151,1.815,1.815,0,0,0,.964-1.389,1.583,1.583,0,0,0-1.455-1.8,2.9,2.9,0,0,0-2.088.757,3.98,3.98,0,0,0-.823.9c-.072.1-.182.113-.177-.038.033-1.182-.455-1.846-1.433-1.867a3.639,3.639,0,0,0-2.2.9,20.439,20.439,0,0,0-1.947,1.985c-.08.085-.151.081-.172-.084a4,4,0,0,0-.579-2.081.483.483,0,0,0-.625-.154,4.546,4.546,0,0,0-.735.439.417.417,0,0,0-.125.466,5.479,5.479,0,0,1-.2,3.624,3.982,3.982,0,0,1-2.278,2.269,1.5,1.5,0,0,1-1.759-.476c-.578-.8-.346-2.2.519-3.355a6.49,6.49,0,0,1,2.964-2.087.172.172,0,0,0,.119-.243c-.06-.18-.155-.426-.194-.538-.1-.267-.384-.313-.729-.274a6.174,6.174,0,0,0-2.231.748,7.614,7.614,0,0,0-3.208,3.964,3.988,3.988,0,0,1-.585,1.081,10.643,10.643,0,0,1-1.337,1.3.24.24,0,0,0-.054.274,2.971,2.971,0,0,0,.518.682.3.3,0,0,0,.29-.058,6.923,6.923,0,0,0,1.313-1.171c.1-.118.2-.068.248.11a2.892,2.892,0,0,0,1.866,1.987c1.71.575,3.483-.258,4.821-1.71a19.167,19.167,0,0,0,1.483-1.921,17.937,17.937,0,0,1,2.94-3.2c.476-.363,1.04-.639,1.323-.455.227.147.3.488-.065,1.153-1.323,2.417-3.271,5.257-3.629,5.943-.065.12-.006.215.119.215.691,0,1.379,0,2.007,0a.241.241,0,0,0,.2-.128c1.016-1.59,1.972-3.1,3-4.667.057-.09.11-.02.112.019a2.6,2.6,0,0,0,.325,1.187,1.773,1.773,0,0,0,1.545.866,2.914,2.914,0,0,0,1.251-.264,4.377,4.377,0,0,0,1.027-.552c.152-.106.18.072.175.1a3,3,0,0,0,1.309,3.377c1.5.74,3.151-.3,4.1-1.238.093-.091.192-.082.2.113a1.716,1.716,0,0,0,.479,1.081c.794.8,2.4.482,4.008-.764a20.3,20.3,0,0,0,3.1-3.119.142.142,0,0,0-.007-.2c-.148-.156-.364-.334-.512-.472a.186.186,0,0,0-.224,0,25.741,25.741,0,0,1-3.206,2.936c-.439.309-1.14.555-1.454.13a.7.7,0,0,1,.012-.694c.382-.95,6.4-10.108,6.709-10.648" transform="translate(-511.472 -533.445)" fill="#76787a"></path><path d="M525.863,537.9c.026.135.078.162.14.15a1.479,1.479,0,0,0,.84-.6c.182-.266.266-.649.086-.8a.477.477,0,0,0-.614.074,1.366,1.366,0,0,0-.452,1.183M510.531,549.69a4.191,4.191,0,0,1-4.445-3.77,4.846,4.846,0,0,1,1-3.491,4.972,4.972,0,0,1,2.752-1.77,1.049,1.049,0,0,1,.9.186.49.49,0,0,1-.078.8,4.636,4.636,0,0,0-2.042,1.881,2.311,2.311,0,0,0,.113,2.383c.9,1.36,3.412,1.4,5.746-.771a20.316,20.316,0,0,0,1.623-1.645,36.92,36.92,0,0,0,2.736-3.5.067.067,0,0,0,.015-.064c-.011-.025-.032-.032-.072-.034a4.177,4.177,0,0,0-2.48.874.484.484,0,0,1-.684-.074.546.546,0,0,1,.213-.734,9.181,9.181,0,0,1,3.99-1.257.227.227,0,0,0,.176-.1c.569-.73,1-1.39,1.607-2.13a16.315,16.315,0,0,1,2.006-1.956,8.922,8.922,0,0,1,1.933-1.267c.145-.076-.018-.167-.063-.167-3.067-.576-6.254-1.323-9.3-.195-2.11.788-3.035,2.461-2.589,3.578.316.793,1.358.922,2.335.444a5.282,5.282,0,0,0,2.093-1.861c.3-.458.924-.128.586.668-.891,2.095-2.593,3.756-4.667,3.825a2.721,2.721,0,0,1-2.9-2.842c.006-3.16,3.525-5.241,7.221-5.553,4.452-.367,8.669.818,13.088,1.355a28.521,28.521,0,0,0,10.039-.364.512.512,0,0,1,.658.576c-.034.588-.489,1.153-1.609,1.764a8.2,8.2,0,0,1-4,.924c-3.369.028-6.508-1.285-9.755-1.99,0,.142.041.311-.078.4a15.4,15.4,0,0,0-4.513,4.566c-.036.044-.016.085.047.081.945-.05,1.8-.074,2.678-.144.154-.013.16-.05.147-.163a2.2,2.2,0,0,1,.687-1.909,1.281,1.281,0,1,1,2.012,1.585,2.16,2.16,0,0,1-1.308,1.058s-.1.024-.087.117c.019.148.686.518.743.616a.309.309,0,0,1-.075.349.424.424,0,0,1-.322.155.67.67,0,0,1-.33-.122,3.115,3.115,0,0,1-.923-.743c-.084-.105-.128-.108-.34-.1-.954.055-2.444.2-3.454.325-.243.03-.28.076-.33.159a42.234,42.234,0,0,1-5.213,7.431c-2.024,2.058-3.706,2.6-5.491,2.612" transform="translate(-506.062 -531.078)" fill="#76787a"></path></g></svg> 