<?xml version="1.0" encoding="UTF-8"?> <svg xmlns="http://www.w3.org/2000/svg" width="87.686" height="28.622" viewBox="0 0 87.686 28.622"><path d="M499.465,452.311h.78a10.639,10.639,0,0,1,7.283,3.075c-.706.721-1.427,1.412-2.118,2.133a7.958,7.958,0,0,0-13.359,4.8,8.19,8.19,0,0,0,1.78,6.326,7.874,7.874,0,0,0,5.738,2.825,7.637,7.637,0,0,0,5.709-1.957,6.231,6.231,0,0,0,1.9-4.06c-2.442,0-4.885.014-7.327,0v-3.031h10.284a10.426,10.426,0,0,1-2.707,9.239,10.056,10.056,0,0,1-6.253,2.81,11.482,11.482,0,0,1-6.576-1.295,11.322,11.322,0,0,1-5.252-5.988,10.843,10.843,0,0,1-.074-7.341,11.2,11.2,0,0,1,4.046-5.37,11.547,11.547,0,0,1,6.149-2.163" transform="translate(-488.666 -452.311)" fill="#76787a"></path><path d="M605.265,453.589h3.148V474.6c-1.045,0-2.1.015-3.148-.015.014-6.988,0-13.991,0-20.994" transform="translate(-535.469 -452.824)" fill="#76787a"></path><path d="M532.8,468.463a3.953,3.953,0,0,0-2.06,1.309,4.667,4.667,0,0,0,.235,6.076,3.916,3.916,0,0,0,3.5,1.088,3.961,3.961,0,0,0,2.737-2.015,4.653,4.653,0,0,0-.794-5.532,3.969,3.969,0,0,0-3.619-.927m-.442-2.8a7.39,7.39,0,0,1,5.65,1.206,6.911,6.911,0,0,1,2.78,4.414,7.114,7.114,0,0,1-7.474,8.533,7.162,7.162,0,0,1-5.356-2.869,7.356,7.356,0,0,1-.971-6.679,6.982,6.982,0,0,1,5.37-4.605" transform="translate(-503.887 -457.62)" fill="#76787a"></path><path d="M558.854,468.462a4.021,4.021,0,0,0-2.06,1.294,4.673,4.673,0,0,0,.162,6.018,3.936,3.936,0,0,0,3.59,1.162,4.034,4.034,0,0,0,2.737-2.016,4.679,4.679,0,0,0-.824-5.547,3.944,3.944,0,0,0-3.6-.912m-.442-2.8a7.153,7.153,0,0,1,7,11.519,7.277,7.277,0,0,1-11.4-.235,7.425,7.425,0,0,1-.927-6.826,6.988,6.988,0,0,1,5.326-4.458" transform="translate(-514.348 -457.619)" fill="#76787a"></path><path d="M585.107,468.4a3.87,3.87,0,0,0-2.309,1.339,4.693,4.693,0,0,0,.014,5.9,3.851,3.851,0,0,0,3.31,1.353,3.74,3.74,0,0,0,2.81-1.869,4.966,4.966,0,0,0-.5-5.561,3.621,3.621,0,0,0-3.325-1.163m-3.045-1.883a6.015,6.015,0,0,1,5.767-.441,5.492,5.492,0,0,1,1.5,1.1c.015-.4,0-.809.015-1.221.986.015,1.971,0,2.972.015v12.976a7.758,7.758,0,0,1-1.927,5.458,7.013,7.013,0,0,1-6.047,1.736,6.841,6.841,0,0,1-5.149-4.1c.883-.427,1.81-.765,2.722-1.163a4.044,4.044,0,0,0,2.869,2.472,3.811,3.811,0,0,0,3.678-1.177,5.883,5.883,0,0,0,.868-4.017,5.218,5.218,0,0,1-2.4,1.471,6.466,6.466,0,0,1-5.87-1.515,7.243,7.243,0,0,1,1-11.594" transform="translate(-524.771 -457.619)" fill="#76787a"></path><path d="M616.919,469.986a4.2,4.2,0,0,0-.692,2.472q3.2-1.324,6.4-2.663a2.646,2.646,0,0,0-2.075-1.456,3.759,3.759,0,0,0-3.633,1.648m-1.574-2.722a6.639,6.639,0,0,1,6.753-1.339,7.6,7.6,0,0,1,4.208,4.958c-3.192,1.324-6.37,2.633-9.563,3.957a3.8,3.8,0,0,0,2.03,1.913,4.124,4.124,0,0,0,3.884-.559,6.275,6.275,0,0,0,1.089-1.162c.809.544,1.618,1.074,2.428,1.618a7.2,7.2,0,0,1-11.373.721,7.541,7.541,0,0,1,.544-10.107" transform="translate(-538.62 -457.613)" fill="#76787a"></path></svg> 