<?xml version="1.0" encoding="UTF-8"?> <svg xmlns="http://www.w3.org/2000/svg" xmlns:xlink="http://www.w3.org/1999/xlink" width="60px" height="42px" viewBox="0 0 60 42" version="1.1"><title>Lyft-Black-Logo.wine</title><desc>Created with Sketch.</desc><g id="Page-1" stroke="none" stroke-width="1" fill="none" fill-rule="evenodd"><g id="Lyft-Black-Logo.wine" fill="#76787a" fill-rule="nonzero"><path d="M8.67718795,24.7496319 L8.67718795,0.750163176 L0,0.750163176 L0,23.2496651 C0,29.4325282 3.93582783,32.2487159 7.59253945,32.2487159 C8.68224964,32.2487159 9.77412912,31.9899716 10.7532052,31.5159821 C10.897825,31.4462336 11.1292166,31.296237 11.1292166,31.296237 C11.1292166,31.296237 10.9093945,31.0562423 10.8197303,30.9504946 C9.4313802,29.3125309 8.67718795,27.1810781 8.67718795,24.7496319 Z M59.2941176,18.7497647 L59.2941176,9.74996394 L56.1978077,9.74996394 C54.9041836,2.67612054 47.7361033,-1.96927662 40.5325911,0.822911565 C36.5208379,2.37837713 33.2625538,7.35226702 33.2625538,11.7944187 L33.2625538,32.2404661 L33.6241033,32.241216 L33.6392884,32.241216 C35.8736643,32.1414682 37.9619742,31.1612399 39.5180832,29.4805272 C41.079977,27.7945645 41.9397418,25.5813635 41.9397418,23.2496651 L45.5552367,23.2496651 L45.5552367,14.2498643 L41.9397418,14.2498643 L41.9397418,11.7764191 C41.9397418,10.8149404 42.4292798,9.91571027 43.2398737,9.44847062 C45.461957,8.16899894 47.7245337,9.8152125 47.7245337,11.9999141 L47.7245337,20.2497315 C47.7245337,23.5144092 48.9118623,26.5435922 51.0688666,28.7807926 C53.131868,30.9204953 55.9208608,32.150468 58.9217217,32.243466 L59.2941176,32.243466 L59.2941176,23.2504151 C59.2941176,23.2504151 59.2941176,23.2496651 59.2933945,23.2496651 C57.6714835,23.2451652 56.4017217,21.8899452 56.4017217,20.2497315 L56.4017217,18.7497647 L59.2941176,18.7497647 Z M22.4160689,9.74996394 L22.4160689,21.7496983 C22.4160689,22.5784299 21.7688953,23.2496651 20.9698709,23.2496651 C20.1708465,23.2496651 19.5236729,22.5784299 19.5236729,21.7496983 L19.5236729,9.74996394 L10.8464849,9.74996394 L10.8464849,24.7496319 C10.8464849,28.8850403 14.090307,32.2494659 18.0774749,32.2494659 C19.8006198,32.2494659 21.4702554,31.60973 22.7776184,30.4495057 C22.6423989,31.5564812 22.0530732,32.4782108 21.0725509,33.1149467 C20.1534921,33.7119335 18.9567633,34.0269265 17.611076,34.0276765 C16.2256184,34.0276765 14.8155753,33.689434 13.5342439,33.0496981 C13.5342439,33.0496981 13.3050215,32.9364506 13.0157819,32.7654544 L13.0157819,40.7595275 C14.9471793,41.5710095 17.0622439,42 19.1122296,42 C22.3538824,42 25.3120803,40.9485233 27.4408838,39.0398155 C29.830726,36.897113 31.0932568,33.7711822 31.0932568,29.9995157 L31.0932568,9.74996394 L22.4160689,9.74996394 Z" id="Shape"></path></g></g></svg> 